Coordinates
version=1
nRows=27
nColumns=12
inDegrees=yes

Units are S.I. units (second, meters, Newtons, ...)
Angles are in degrees

endheader
time	SC_y	SC_z	SC_x	AC_y	AC_z	AC_x	GH_y	GH_z	GH_yy	EL_x	PS_y
       0.0              -40.29          21.99          23.02          63.82         -11.37           11.5          65.58          24.83         -81.63          39.64          109.2
   0.02886              -40.28          21.99          23.03          63.82         -11.37          11.49          65.57          24.83         -81.62          39.65          109.2
   0.05773              -40.28          21.98          23.03          63.81         -11.38          11.49          65.55          24.84          -81.6          39.66          109.2
   0.08659              -40.27          21.98          23.04          63.81         -11.38          11.49          65.54          24.85         -81.58          39.68          109.2
    0.1155              -40.27          21.98          23.05          63.81         -11.38          11.48          65.53          24.86         -81.57          39.69          109.2
    0.1443              -40.27          21.97          23.06           63.8         -11.38          11.48          65.51          24.86         -81.55          39.71          109.2
    0.1732              -40.26          21.97          23.07           63.8         -11.38          11.48           65.5          24.87         -81.53          39.72          109.2
     0.202              -40.25          21.96          23.08           63.8         -11.38          11.47          65.48          24.88         -81.51          39.74          109.2
    0.2309              -40.25          21.96          23.09          63.79         -11.38          11.47          65.46          24.89         -81.49          39.76          109.2
    0.2598              -40.24          21.95           23.1          63.79         -11.38          11.46          65.44           24.9         -81.46          39.78          109.2
    0.2886              -40.24          21.95          23.11          63.78         -11.39          11.46          65.42          24.92         -81.44           39.8          109.2
    0.3175              -40.23          21.94          23.13          63.78         -11.39          11.45           65.4          24.93         -81.41          39.83          109.2
    0.3464              -40.22          21.93          23.14          63.77         -11.39          11.44          65.37          24.94         -81.38          39.85          109.2
    0.3752              -40.21          21.92          23.15          63.77         -11.39          11.44          65.35          24.96         -81.34          39.88          109.2
    0.4041               -40.2          21.92          23.17          63.76         -11.39          11.43          65.32          24.97         -81.31          39.91          109.2
     0.433              -40.19          21.91          23.19          63.75         -11.39          11.42          65.29          24.99         -81.27          39.94          109.2
    0.4618              -40.18           21.9          23.21          63.74          -11.4          11.41          65.25          25.01         -81.23          39.98          109.2
    0.4907              -40.17          21.89          23.23          63.74          -11.4           11.4          65.22          25.03         -81.19          40.02          109.2
    0.5195              -40.16          21.87          23.25          63.73          -11.4          11.39          65.18          25.05         -81.14          40.06          109.2
    0.5484              -40.15          21.86          23.28          63.72         -11.41          11.38          65.13          25.07         -81.08          40.11          109.2
    0.5773              -40.13          21.85          23.31           63.7         -11.41          11.37          65.09           25.1         -81.02          40.16          109.2
    0.6061              -40.12          21.83          23.34          63.69         -11.41          11.35          65.03          25.13         -80.96          40.21          109.2
     0.635               -40.1          21.82          23.37          63.68         -11.42          11.34          64.97          25.16         -80.89          40.27          109.2
    0.6639              -40.08           21.8          23.41          63.66         -11.42          11.32          64.91           25.2         -80.81          40.34          109.2
    0.6927              -40.05          21.78          23.45          63.65         -11.43           11.3          64.84          25.24         -80.72          40.42          109.2
    0.7216              -40.03          21.75           23.5          63.63         -11.43          11.28          64.76          25.28         -80.62           40.5          109.2
    0.7505               -40.0          21.73          23.55          63.61         -11.44          11.25          64.67          25.33         -80.51          40.59          109.2
